<svg xmlns="http://www.w3.org/2000/svg" width="340" height="56" viewBox="0 0 340 56" role="img" aria-labelledby="t d">
  <title id="t">WhatsApp Brian</title>
  <desc id="d">Chat on WhatsApp: +263 778 686 550</desc>
  <style>
    text { font-family: 'Segoe UI', system-ui, -apple-system, Helvetica, Arial, sans-serif; }
    .mono { font-family: 'Courier New', Courier, monospace; }
    
    .b { animation: glow 2.4s ease-in-out infinite; }
    @keyframes glow { 0%,100% { opacity: .9; } 50% { opacity: 1; } }
    @media (prefers-reduced-motion: reduce) { .b { animation: none; } }
    
  </style>
<g class="b">
  <rect x="2" y="2" width="336" height="52" rx="26" fill="#25D366"/>
  <g transform="translate(34,28)">
    <path d="M0,-12 a12,12 0 1 1 -6.2,22.3 L-12,12 L-9.6,5.6 A12,12 0 0 1 0,-12 Z" fill="none" stroke="#06331a" stroke-width="2" stroke-linejoin="round"/>
    <path d="M-4.2,-5 c-1.2,2.6 0.4,5.8 3.3,8.2 c2.9,2.4 5.2,2.8 6.6,2 l0.9,-2.3 l-2.6,-1.6 l-1.3,1.1 c-1.5,-0.7 -3,-2.2 -3.6,-3.8 l1.1,-1.2 l-1.4,-2.7 Z" fill="#06331a"/>
  </g>
  <text x="196" y="34" text-anchor="middle" font-size="16" font-weight="800" fill="#06331a">WhatsApp  +263 778 686 550</text>
</g>
</svg>
